<?xml version="1.0" standalone="no"?><!DOCTYPE svg PUBLIC "-//W3C//DTD SVG 1.1//EN" "http://www.w3.org/Graphics/SVG/1.1/DTD/svg11.dtd"><svg t="1692326956342" class="icon" viewBox="0 0 1024 1024" version="1.1" xmlns="http://www.w3.org/2000/svg" p-id="3318" xmlns:xlink="http://www.w3.org/1999/xlink" width="200" height="200"><path d="M643.00825669 384.16503401c8.52387531 0 17.04775062 0.74120635 25.20102276 1.48241272-22.60679977-105.62193235-135.64079789-184.18982678-264.61073637-184.18982677C259.43386988 201.45761996 141.21142578 299.66748726 141.21142578 424.56079004c0 71.89703501 39.28394722 131.19355828 104.88072599 177.14836491l-26.31283229 78.93849687L311.68893128 634.69284593c32.98369099 6.67085869 59.29652327 12.9711142 91.90961179 12.97111419 8.15327213 0 16.30654426-0.37060318 24.45981568-1.11180954-5.18844597-17.41835381-8.15327213-35.94851714-8.15327214-54.84928439 0-114.51641156 98.58047049-207.5378329 223.10317008-207.53783218zM501.80840965 313.00920537c19.6419736 0 32.98369099 12.9711142 32.98369171 32.61308779 0 19.6419736-12.9711142 32.98369099-32.98369171 32.98369169-19.6419736 0-39.28394722-12.9711142-39.28394648-32.98369169 0-19.6419736 19.6419736-32.61308781 39.28394648-32.6130878zM318.35978997 378.60598485c-19.6419736 0-39.6545504-12.9711142-39.65455039-32.98369169 0-19.6419736 20.01257678-32.61308781 39.65455039-32.6130878s32.61308781 12.9711142 32.61308779 32.6130878c0 19.6419736-12.9711142 32.98369099-32.61308779 32.98369169z" fill="#83D944" p-id="3319"></path><path d="M882.41797104 588.73804003c0-104.88072599-104.88072599-190.49008227-222.73256691-190.49008228-124.89330278 0-223.10317009 85.60935629-223.10317009 190.49008227 0 104.88072599 98.2098673 190.49008227 223.10317009 190.4900823 26.31283229 0 52.62566459-6.67085869 78.93849688-12.97111493l71.89703502 39.28394722-19.64197361-65.59677951c52.2550614-39.6545504 91.53900863-92.28021498 91.53900862-151.20613507z m-295.00020508-32.98369098c-12.9711142 0-26.31283229-12.9711142-26.3128323-26.31283229 0-12.9711142 12.9711142-26.31283229 26.3128323-26.3128323 20.01257678 0 32.98369099 12.9711142 32.98369096 26.3128323-0.37060318 13.3417181-13.3417181 26.31283229-32.98369096 26.31283229z m144.16467319 0c-12.9711142 0-25.94222911-12.9711142-25.94222912-26.31283229 0-12.9711142 12.9711142-26.31283229 25.94222912-26.3128323 19.6419736 0 32.98369099 12.9711142 32.98369098 26.3128323-0.37060318 13.3417181-13.3417181 26.31283229-32.98369098 26.31283229z" fill="#D8D8D8" p-id="3320"></path></svg>